<?xml version="1.0" standalone="no"?>
<!DOCTYPE svg PUBLIC "-//W3C//DTD SVG 20010904//EN"
 "http://www.w3.org/TR/2001/REC-SVG-20010904/DTD/svg10.dtd">
<svg version="1.0" xmlns="http://www.w3.org/2000/svg"
 width="600.000000pt" height="300.000000pt" viewBox="0 0 600.000000 300.000000"
 preserveAspectRatio="xMidYMid meet">

<g transform="translate(0.000000,300.000000) scale(0.100000,-0.100000)"
fill="#000000" stroke="none">
<path d="M0 1500 l0 -1500 3000 0 3000 0 0 1500 0 1500 -3000 0 -3000 0 0
-1500z m1136 735 c103 -22 212 -67 260 -110 25 -22 33 -34 23 -35 -8 0 -23 -6
-32 -13 -16 -11 -16 -16 7 -74 34 -87 56 -191 56 -265 l0 -63 77 134 c83 145
84 158 25 176 -41 12 -42 35 -1 35 17 0 106 5 197 10 200 12 576 29 580 25 1
-1 -13 -18 -32 -37 -25 -25 -36 -46 -40 -79 -4 -24 -3 -242 2 -484 4 -242 6
-448 3 -458 -3 -16 -14 -17 -100 -15 l-96 3 -2 70 c-1 39 -2 75 -2 80 -1 6 -1
126 -1 267 l1 258 -93 -6 c-118 -7 -219 -22 -236 -36 -20 -17 -25 -2 -13 34
27 78 27 78 169 78 172 0 169 -3 162 140 -4 80 -13 94 -62 87 -146 -20 -299
-188 -369 -408 -51 -158 -47 -321 11 -470 11 -27 17 -49 14 -49 -3 0 2 -7 11
-16 21 -22 9 -32 -43 -35 -31 -2 -47 2 -60 15 -12 14 -13 17 -2 12 8 -4 4 2
-10 14 -14 12 -18 18 -10 14 11 -5 10 -2 -2 13 -10 11 -18 25 -18 31 0 7 -5
12 -11 12 -5 0 -8 4 -5 9 4 5 1 11 -5 13 -19 6 -60 189 -66 292 l-6 99 -22
-59 c-48 -129 -67 -171 -88 -198 -34 -45 -177 -189 -222 -223 -40 -30 -45 -33
-66 -33 -5 0 -8 -3 -6 -7 3 -5 -28 -7 -69 -5 -60 3 -72 6 -61 16 6 8 22 25 33
38 12 14 26 27 31 29 29 12 179 263 187 312 1 7 4 17 8 22 5 10 15 50 26 105
2 14 6 69 9 122 8 169 -46 326 -148 429 -75 76 -127 93 -258 86 -190 -10 -285
-69 -311 -194 -10 -44 -6 -99 24 -360 44 -383 55 -499 52 -540 -1 -18 1 -33 4
-33 3 0 6 -8 7 -17 1 -16 -9 -18 -119 -15 -108 3 -120 1 -114 -13 3 -9 2 -13
-4 -10 -6 3 -7 18 -4 32 5 18 3 24 -4 19 -8 -4 -10 -2 -6 8 3 8 1 23 -5 33 -5
11 -6 25 -1 33 4 7 4 24 -1 38 -6 14 -12 51 -14 81 -4 63 -13 139 -22 191 -13
75 -22 165 -22 218 0 18 -4 38 -8 45 -4 6 -6 26 -4 43 1 18 -2 35 -8 38 -5 4
-8 15 -6 26 2 11 -4 49 -14 85 -10 36 -16 65 -12 65 3 0 -7 9 -24 20 -16 11
-46 20 -65 20 l-35 1 48 43 c134 120 410 234 622 256 110 12 316 4 411 -15z
m1947 -172 c47 -13 73 -29 130 -81 40 -36 73 -69 75 -73 2 -4 -16 -21 -40 -40
-24 -18 -49 -39 -55 -48 -7 -8 -13 -12 -13 -8 0 4 -40 -19 -88 -52 -55 -37
-130 -75 -198 -101 -152 -58 -247 -91 -251 -86 -8 8 31 38 127 97 98 59 198
153 229 212 14 27 13 29 -26 69 -33 32 -51 42 -92 49 -119 18 -223 -26 -266
-115 l-26 -53 2 -406 c1 -223 -2 -410 -5 -415 -3 -6 -2 -13 4 -17 25 -15 4
-20 -88 -20 l-98 0 -1 40 c-2 201 -26 779 -33 810 -9 41 -32 65 -62 65 -32 0
-19 18 41 54 83 51 157 82 253 107 162 41 361 46 481 12z m522 -6 l50 -2 -36
-21 c-44 -26 -64 -80 -73 -195 l-5 -76 127 -6 c202 -11 239 -9 246 9 11 30 6
165 -8 198 -8 18 -23 40 -33 47 -52 38 -42 40 129 33 89 -3 179 -10 198 -14
l35 -7 -27 -11 c-65 -26 -73 -69 -98 -487 -11 -187 -23 -374 -27 -415 -3 -41
-6 -88 -6 -105 l0 -30 -96 5 -96 5 2 30 c4 49 5 86 2 161 -1 39 1 76 5 82 4 7
6 44 6 84 -1 40 2 128 6 196 l7 122 -65 0 c-36 0 -119 3 -185 6 l-121 7 -6
-269 c-4 -148 -8 -308 -9 -356 -1 -47 -5 -81 -8 -76 -4 7 -48 10 -110 9 -89
-2 -101 0 -90 12 14 18 28 820 16 933 -6 60 -11 72 -41 99 -19 17 -34 33 -34
36 0 4 235 1 345 -4z m868 -63 c159 -80 288 -179 376 -288 l56 -70 7 65 c4 35
7 95 9 134 2 69 1 70 -36 102 -21 18 -35 36 -32 39 4 4 57 1 119 -5 62 -7 131
-12 152 -11 47 1 163 -11 491 -51 138 -17 267 -29 288 -26 20 3 37 3 37 1 0
-26 -132 -212 -147 -207 -4 1 -12 18 -19 39 -27 77 -110 134 -199 134 -61 0
-119 -25 -175 -76 -41 -38 -100 -114 -100 -131 0 -5 71 -17 158 -27 190 -21
222 -26 222 -36 0 -4 -25 -29 -55 -55 l-56 -47 -18 21 c-20 23 -75 35 -202 45
-105 9 -112 0 -117 -139 -5 -116 12 -210 54 -310 14 -33 26 -67 28 -74 2 -8 8
-17 14 -19 31 -10 -6 -22 -69 -22 -53 0 -71 4 -75 15 -4 8 -10 13 -14 10 -5
-3 -19 12 -31 32 -13 21 -27 41 -32 44 -5 4 -6 12 -3 18 4 6 2 11 -3 11 -6 0
-11 5 -11 11 0 5 -11 35 -25 65 -14 30 -25 63 -25 74 0 11 -3 20 -7 20 -5 0
-8 10 -9 23 0 17 -13 131 -17 157 0 3 3 37 7 75 11 94 31 144 104 257 34 52
62 100 62 106 0 18 -38 33 -86 35 -33 2 -49 -3 -65 -19 -19 -20 -24 -49 -50
-325 -15 -167 -31 -322 -34 -344 -9 -62 -47 -185 -56 -185 -5 0 -8 -3 -8 -7 1
-5 -4 -23 -11 -41 -11 -30 -16 -32 -51 -30 -21 1 -36 6 -33 10 3 5 10 5 16 2
6 -4 8 -3 5 2 -3 5 3 40 13 78 38 134 29 239 -30 362 -32 66 -58 101 -118 162
-95 95 -120 114 -202 154 -36 17 -73 35 -84 41 -35 17 -38 4 -61 -313 -9 -113
-18 -232 -20 -265 -3 -33 -8 -94 -11 -135 -3 -41 -6 -81 -7 -87 0 -8 -14 -13
-33 -13 -25 0 -34 5 -39 21 -4 12 -3 24 2 28 12 8 11 44 -2 53 -6 5 -6 8 0 8
6 0 10 35 11 83 0 45 8 165 17 267 8 102 16 192 16 200 3 72 11 162 16 170 10
17 -31 47 -76 54 l-44 7 88 85 c62 59 95 84 113 84 13 0 66 -21 117 -46z
m-3473 -1030 c0 -8 -19 -13 -24 -6 -3 5 1 9 9 9 8 0 15 -2 15 -3z m1277 -16
c-3 -8 -6 -5 -6 6 -1 11 2 17 5 13 3 -3 4 -12 1 -19z m1936 7 c-3 -9 -8 -14
-10 -11 -3 3 -2 9 2 15 9 16 15 13 8 -4z m84 -17 c-3 -8 -6 -5 -6 6 -1 11 2
17 5 13 3 -3 4 -12 1 -19z m-2683 -4 c3 -8 2 -12 -4 -9 -6 3 -10 10 -10 16 0
14 7 11 14 -7z m1937 -1 c13 -16 12 -17 -3 -4 -17 13 -22 21 -14 21 2 0 10 -8
17 -17z m319 13 c0 -2 -8 -10 -17 -17 -16 -13 -17 -12 -4 4 13 16 21 21 21 13z
m1395 -46 c21 -22 37 -40 34 -40 -3 0 -23 18 -44 40 -21 22 -37 40 -34 40 3 0
23 -18 44 -40z m-4326 27 c-2 -1 -13 -9 -24 -17 -19 -14 -19 -14 -6 3 7 9 18
17 24 17 6 0 8 -1 6 -3z m3817 -25 c-17 -16 -18 -16 -5 5 7 12 15 20 18 17 3
-2 -3 -12 -13 -22z m-2726 3 c-7 -8 -17 -15 -23 -15 -6 0 -2 7 9 15 25 19 30
19 14 0z m3385 -15 c10 -11 16 -20 13 -20 -3 0 -13 9 -23 20 -10 11 -16 20
-13 20 3 0 13 -9 23 -20z m-3017 3 c-10 -2 -28 -2 -40 0 -13 2 -5 4 17 4 22 1
32 -1 23 -4z m945 0 c-18 -2 -48 -2 -65 0 -18 2 -4 4 32 4 36 0 50 -2 33 -4z
m-1678 -23 c10 -11 16 -20 13 -20 -3 0 -13 9 -23 20 -10 11 -16 20 -13 20 3 0
13 -9 23 -20z m356 2 c-13 -2 -27 0 -32 5 -6 6 3 7 23 4 28 -4 29 -6 9 -9z
m277 11 c-10 -2 -26 -2 -35 0 -10 3 -2 5 17 5 19 0 27 -2 18 -5z m-1588 -8 c0
-2 -10 -9 -22 -15 -22 -11 -22 -10 -4 4 21 17 26 19 26 11z m3278 -2 c-10 -2
-26 -2 -35 0 -10 3 -2 5 17 5 19 0 27 -2 18 -5z m205 -10 c-7 -2 -19 -2 -25 0
-7 3 -2 5 12 5 14 0 19 -2 13 -5z m140 -10 c-7 -2 -19 -2 -25 0 -7 3 -2 5 12
5 14 0 19 -2 13 -5z m1008 -20 c13 -16 12 -17 -3 -4 -10 7 -18 15 -18 17 0 8
8 3 21 -13z m130 0 c13 -16 12 -17 -3 -4 -10 7 -18 15 -18 17 0 8 8 3 21 -13z
m-3742 -16 c8 -10 7 -14 -2 -14 -8 0 -14 6 -14 14 0 7 1 13 2 13 2 0 8 -6 14
-13z m-1426 -12 c-3 -9 -8 -14 -10 -11 -3 3 -2 9 2 15 9 16 15 13 8 -4z m4397
11 c0 -2 -8 -10 -17 -17 -16 -13 -17 -12 -4 4 13 16 21 21 21 13z m-2890 -46
c0 -5 -5 -10 -11 -10 -5 0 -7 5 -4 10 3 6 8 10 11 10 2 0 4 -4 4 -10z m-1243
-6 c-3 -3 -12 -4 -19 -1 -8 3 -5 6 6 6 11 1 17 -2 13 -5z m-140 -20 c-3 -3
-12 -4 -19 -1 -8 3 -5 6 6 6 11 1 17 -2 13 -5z m5078 -12 c-3 -3 -11 0 -18 7
-9 10 -8 11 6 5 10 -3 15 -9 12 -12z"/>
</g>
</svg>
