<?xml version="1.0" encoding="UTF-8" standalone="no"?>
<!-- Generator: Adobe Illustrator 16.0.3, SVG Export Plug-In . SVG Version: 6.00 Build 0)  -->

<svg
   xmlns:dc="http://purl.org/dc/elements/1.1/"
   xmlns:cc="http://creativecommons.org/ns#"
   xmlns:rdf="http://www.w3.org/1999/02/22-rdf-syntax-ns#"
   xmlns:svg="http://www.w3.org/2000/svg"
   xmlns="http://www.w3.org/2000/svg"
   xmlns:sodipodi="http://sodipodi.sourceforge.net/DTD/sodipodi-0.dtd"
   xmlns:inkscape="http://www.inkscape.org/namespaces/inkscape"
   version="1.1"
   id="Ebene_1"
   x="0px"
   y="0px"
   width="601.13806"
   height="129.13196"
   viewBox="0 0 601.13803 129.13196"
   enable-background="new 0 0 566.926 121.783"
   xml:space="preserve"
   sodipodi:docname="logo.svg"
   inkscape:version="0.92.4 (5da689c313, 2019-01-14)"><metadata
   id="metadata37"><rdf:RDF><cc:Work
       rdf:about=""><dc:format>image/svg+xml</dc:format><dc:type
         rdf:resource="http://purl.org/dc/dcmitype/StillImage" /></cc:Work></rdf:RDF></metadata><defs
   id="defs35" /><sodipodi:namedview
   pagecolor="#ffffff"
   bordercolor="#666666"
   borderopacity="1"
   objecttolerance="10"
   gridtolerance="10"
   guidetolerance="10"
   inkscape:pageopacity="0"
   inkscape:pageshadow="2"
   inkscape:window-width="1366"
   inkscape:window-height="704"
   id="namedview33"
   showgrid="false"
   inkscape:zoom="0.6138367"
   inkscape:cx="283.46301"
   inkscape:cy="68.24046"
   inkscape:window-x="0"
   inkscape:window-y="27"
   inkscape:window-maximized="1"
   inkscape:current-layer="Ebene_1" />
<g
   id="g30"
   transform="scale(1.0603447)">
	<polygon
   points="19.862,8.264 19.862,120.425 9.929,120.425 9.929,8.264 0,8.264 0,0 28.081,0 28.081,8.264 "
   id="polygon2"
   style="fill:#f79226" />
	<path
   d="M 53.519,112.216 H 64.48 V 33.634 h 9.587 v 78.582 c 0,5.085 -4.622,8.688 -9.36,8.688 H 53.519 c -5.007,0 -9.474,-4.075 -9.474,-8.791 V 33.634 h 9.474 z"
   id="path4"
   inkscape:connector-curvature="0"
   style="fill:#f79226" />
	<path
   d="m 259.674,52.827 h 14.642 v 68.155 h -20.632 c -4.412,0 -9.846,-3.377 -9.846,-8.5 V 9.457 c 0,-4.328 4.535,-8.937 9.629,-8.937 h 11.259 c 4.994,0 9.525,4.567 9.525,8.836 v 24.407 h -9.868 V 9.696 H 253.17 v 102.862 h 11.472 v -51.39 h -4.968 z"
   id="path6"
   inkscape:connector-curvature="0"
   style="fill:#d5e14d" />
	<path
   d="m 401.255,79.154 v 41.31 h -9.244 V 41.345 c 0,-3.574 3.552,-7.468 8.047,-7.468 h 15.24 v 7.626 h -14.043 v 29.232 h 11.56 v 8.458 z"
   id="path8"
   inkscape:connector-curvature="0"
   style="fill:#d5e14d" />
	<path
   d="m 434.045,33.899 h 9.703 v 31.512 l 5.479,5.509 5.363,-5.356 V 33.899 h 9.586 v 29.982 c 0,3.661 -9.47,13.306 -9.47,13.306 0,0 9.586,9.639 9.586,13.546 v 29.905 h -9.017 V 89.504 l -5.822,-5.887 -5.821,5.81 v 31.212 h -9.587 V 90.805 c 0,-3.668 10.155,-13.694 10.155,-13.694 0,0 -10.155,-9.538 -10.155,-13.381 z"
   id="path10"
   inkscape:connector-curvature="0"
   style="fill:#d5e14d" />
	<path
   d="m 115.616,79.349 c 3.253,0 7.578,-3.888 7.578,-9.092 V 41.82 c 0,-4.092 -4.667,-7.902 -9.975,-7.902 H 93.528 v 86.894 h 9.076 V 79.988 h 3.425 l 10.101,40.67 h 8.904 z M 113.82,70.852 H 102.946 V 42.337 h 10.874 z"
   id="path12"
   inkscape:connector-curvature="0"
   style="fill:#f79226" />
	<path
   d="m 316.457,79.122 c 3.254,0 7.581,-3.895 7.581,-9.095 V 41.59 c 0,-4.091 -4.67,-7.905 -9.975,-7.905 h -19.69 v 86.9 h 9.069 v -40.83 h 3.428 l 10.104,40.669 h 8.901 z m -1.928,-8.594 H 303.662 V 42.014 h 10.867 z"
   id="path14"
   inkscape:connector-curvature="0"
   style="fill:#d5e14d" />
	<path
   d="m 171.712,81.398 c -0.042,-3.894 -4.107,-6.358 -4.107,-6.358 0,0 4.107,-2.658 4.107,-6.353 V 42.16 c 0,-5.007 -4.408,-8.264 -8.901,-8.264 h -20.719 v 86.743 h 20.719 c 4.195,0 8.901,-2.62 8.901,-8.261 0,0 0.046,-27.091 0,-30.98 z m -9.331,30.741 H 151.51 V 79.808 h 10.871 z m 0,-41.307 H 151.51 V 42.318 h 10.871 z"
   id="path16"
   inkscape:connector-curvature="0"
   style="fill:#f79226" />
	<path
   d="m 211.392,33.255 h -5.479 -5.308 c -5.437,0 -9.396,4.648 -9.396,8.183 v 70.447 c 0,4.554 5.072,8.682 9.354,8.682 h 11.728 c 4.58,0 9.16,-4.729 9.16,-8.5 V 41.199 c 0,-3.176 -4.325,-7.944 -10.059,-7.944 z m 0.342,78.359 H 201.232 V 41.836 h 10.502 z"
   id="path18"
   inkscape:connector-curvature="0"
   style="fill:#f79226" />
	<path
   d="m 363.691,33.876 h -11.979 c -5.396,0 -8.564,4.447 -8.564,7.944 v 78.644 h 9.075 v -41.31 h 11.469 v 41.31 h 9.076 V 42.295 c -10e-4,-5.188 -3.591,-8.419 -9.077,-8.419 z m -0.259,36.7 h -10.867 v -27.96 h 10.867 z"
   id="path20"
   inkscape:connector-curvature="0"
   style="fill:#d5e14d" />
	<g
   id="g28">
		<g
   id="g26">
			<rect
   x="518.90198"
   y="79.943001"
   width="28.094"
   height="10.479"
   id="rect22"
   style="fill:#f79226" />
			<path
   d="m 522.37,32.673 c -24.607,0 -44.551,19.946 -44.551,44.553 0,24.607 19.943,44.557 44.551,44.557 24.606,0 44.557,-19.949 44.557,-44.557 C 566.926,52.62 546.976,32.673 522.37,32.673 Z m -15.163,62.86 h -14.128 v -4.949 h 4.554 V 64.438 h -4.47 v -5.113 h 9.58 V 90.5 h 4.464 z m 44.66,-26.709 h -4.541 v -4.548 h -28.67 v 10.88 h 30.617 l 2.594,2.601 v 14.374 l -3.247,3.247 h -31.341 l -3.248,-3.247 v -29.64 l 3.008,-3.005 h 32.072 l 2.756,2.759 z"
   id="path24"
   inkscape:connector-curvature="0"
   style="fill:#f79226" />
		</g>
	</g>
</g>
</svg>