<?xml version="1.0" standalone="no"?>
<!DOCTYPE svg PUBLIC "-//W3C//DTD SVG 20010904//EN"
 "http://www.w3.org/TR/2001/REC-SVG-20010904/DTD/svg10.dtd">
<svg version="1.0" xmlns="http://www.w3.org/2000/svg"
 width="373.000000pt" height="187.000000pt" viewBox="0 0 373.000000 187.000000"
 preserveAspectRatio="xMidYMid meet">

<g transform="translate(0.000000,187.000000) scale(0.100000,-0.100000)"
fill="#000000" stroke="none">
<path d="M0 935 l0 -935 1865 0 1865 0 0 935 0 935 -1865 0 -1865 0 0 -935z
m434 219 c13 -5 16 -22 16 -85 0 -44 -4 -79 -10 -79 -5 0 -26 11 -46 25 -20
14 -46 25 -58 25 -35 0 -86 -38 -102 -75 -42 -103 102 -190 179 -109 12 13 25
24 30 24 4 0 7 -38 7 -84 l0 -83 -31 -7 c-51 -10 -141 -6 -181 8 -55 20 -93
55 -122 113 -54 107 -21 232 79 299 47 32 54 34 137 34 47 0 93 -3 102 -6z
m176 -74 l0 -80 65 0 65 0 0 80 0 80 65 0 65 0 0 -129 c0 -94 3 -131 13 -135
10 -5 10 -7 0 -12 -15 -6 -18 -44 -4 -44 13 0 41 47 41 70 0 11 4 20 8 20 5 0
19 19 31 43 13 23 35 62 49 87 13 25 31 57 39 73 14 27 15 27 119 27 l104 0 0
-225 0 -225 -70 0 -70 0 0 80 0 80 -32 0 c-46 0 -62 -13 -53 -40 6 -19 4 -22
-9 -17 -16 7 -20 -5 -16 -50 1 -13 -3 -23 -9 -23 -6 0 -11 6 -11 13 -1 6 -8 0
-16 -15 l-15 -28 -114 0 -115 0 0 80 0 80 -65 0 -65 0 0 -80 0 -80 -65 0 -65
0 0 225 0 225 65 0 65 0 0 -80z m848 51 c7 -16 26 -46 43 -67 16 -20 29 -43
29 -50 0 -8 9 -14 20 -14 18 0 20 7 20 80 l0 80 70 0 70 0 0 -225 0 -225 -75
0 c-41 0 -75 4 -75 9 0 21 -109 164 -111 145 -1 -5 -5 2 -9 16 -5 16 -8 -8 -9
-72 l-1 -98 -70 0 -70 0 0 225 0 225 78 0 c76 0 77 -1 90 -29z m431 6 c5 -12
25 -44 45 -70 20 -26 36 -52 36 -57 0 -6 7 -10 16 -10 11 0 15 -6 11 -20 -3
-11 -1 -20 4 -20 5 0 9 45 9 100 l0 100 65 0 65 0 0 -225 0 -225 -74 0 -74 0
-11 33 c-7 19 -20 42 -30 53 -9 11 -25 32 -35 46 -10 15 -24 24 -31 22 -8 -4
-15 3 -18 18 -2 13 -5 -21 -6 -74 l-1 -98 -70 0 -70 0 0 225 0 225 80 0 c75 0
81 -2 89 -23z m561 -37 l0 -60 -70 0 c-63 0 -70 -2 -70 -20 0 -18 7 -20 70
-20 l70 0 0 -65 0 -65 -70 0 c-68 0 -70 -1 -70 -25 0 -24 2 -25 70 -25 l70 0
0 -55 0 -55 -145 0 -145 0 0 225 0 225 145 0 145 0 0 -60z m150 -110 l0 -170
65 0 65 0 0 -55 0 -55 -135 0 -135 0 0 225 0 225 70 0 70 0 0 -170z m-660 140
c0 -5 -4 -10 -10 -10 -5 0 -10 5 -10 10 0 6 5 10 10 10 6 0 10 -4 10 -10z m30
-40 c0 -5 -4 -10 -10 -10 -5 0 -10 5 -10 10 0 6 5 10 10 10 6 0 10 -4 10 -10z
m-1040 -20 c0 -5 -4 -10 -10 -10 -5 0 -10 5 -10 10 0 6 5 10 10 10 6 0 10 -4
10 -10z m30 -35 c0 -8 -4 -15 -10 -15 -5 0 -10 7 -10 15 0 8 5 15 10 15 6 0
10 -7 10 -15z m90 -255 c0 -5 -4 -10 -10 -10 -5 0 -10 5 -10 10 0 6 5 10 10
10 6 0 10 -4 10 -10z m870 -50 c0 -5 -4 -10 -10 -10 -5 0 -10 5 -10 10 0 6 5
10 10 10 6 0 10 -4 10 -10z"/>
</g>
</svg>
