<?xml version="1.0" standalone="no"?>
<!DOCTYPE svg PUBLIC "-//W3C//DTD SVG 20010904//EN"
 "http://www.w3.org/TR/2001/REC-SVG-20010904/DTD/svg10.dtd">
<svg version="1.0" xmlns="http://www.w3.org/2000/svg"
 width="373.000000pt" height="187.000000pt" viewBox="0 0 373.000000 187.000000"
 preserveAspectRatio="xMidYMid meet">

<g transform="translate(0.000000,187.000000) scale(0.100000,-0.100000)"
fill="#000000" stroke="none">
<path d="M0 935 l0 -935 1865 0 1865 0 0 935 0 935 -1865 0 -1865 0 0 -935z
m488 640 c65 -20 92 -52 92 -112 0 -51 -12 -80 -47 -108 l-25 -21 40 -87 41
-87 -68 0 -67 0 -22 46 c-27 54 -46 53 -50 -4 l-3 -42 -57 0 -57 0 3 215 3
215 83 0 c45 0 105 -7 134 -15z m770 -202 l2 -213 -108 0 c-92 0 -114 3 -152
23 -62 31 -84 66 -84 130 0 92 58 153 167 172 36 7 37 9 37 49 0 24 3 46 7 50
4 4 34 6 68 4 l60 -3 3 -212z m932 137 c0 -59 0 -60 -29 -60 -16 0 -34 -6 -40
-14 -7 -8 -15 -56 -20 -108 -4 -51 -14 -103 -22 -116 -20 -33 -88 -62 -142
-62 l-47 0 0 60 c0 57 1 60 24 60 35 0 56 35 56 95 1 99 29 166 81 192 13 7
50 13 82 13 l57 0 0 -60z m142 18 l3 -43 62 -5 c100 -8 107 -19 111 -190 l4
-140 -71 0 -70 0 -3 113 c-2 92 -6 112 -18 112 -12 0 -16 -20 -18 -112 l-3
-113 -64 0 -65 0 0 210 0 210 64 0 65 0 3 -42z m998 -53 c0 -52 3 -95 8 -95 4
0 18 16 31 35 23 34 25 35 93 35 76 0 75 3 26 -66 l-30 -41 46 -91 c25 -51 46
-94 46 -97 0 -3 -31 -5 -68 -5 l-69 0 -26 61 c-33 76 -51 74 -55 -4 l-3 -57
-49 0 -50 0 0 210 0 210 50 0 50 0 0 -95z m-1596 -8 c48 -37 66 -75 66 -140 0
-62 -25 -108 -79 -144 -46 -31 -131 -31 -185 0 -47 26 -86 93 -86 147 0 53 39
121 86 148 56 33 147 28 198 -11z m1398 -1 c32 -21 78 -108 78 -148 0 -28 0
-28 -65 -28 -38 0 -65 4 -65 10 0 6 -11 15 -25 22 -30 14 -75 -12 -75 -43 0
-54 51 -78 96 -44 20 15 114 21 114 6 0 -15 -46 -59 -81 -77 -108 -56 -248 31
-249 154 0 83 61 159 139 172 46 8 99 -2 133 -24z m-1702 -141 l0 -165 -65 0
-65 0 0 165 0 165 65 0 65 0 0 -165z m-566 134 c26 -20 26 -21 26 -161 l0
-140 -126 4 c-124 3 -126 3 -150 31 -54 63 -16 146 71 156 74 9 71 31 -4 31
l-61 0 0 50 0 50 109 0 c94 0 112 -3 135 -21z m1941 -14 c24 -23 25 -29 25
-161 l0 -136 -126 3 c-123 4 -126 5 -150 32 -27 32 -31 75 -10 116 17 32 54
51 102 51 61 0 35 25 -29 28 l-57 3 0 44 0 45 110 0 c104 0 112 -1 135 -25z"/>
<path d="M372 1404 c-24 -17 -30 -62 -10 -82 30 -30 98 -1 98 41 0 20 -34 57
-53 57 -7 0 -23 -7 -35 -16z"/>
<path d="M1068 1319 c-30 -17 -39 -45 -26 -74 17 -38 56 -44 84 -12 26 30 22
60 -9 82 -25 17 -27 18 -49 4z"/>
<path d="M1603 1330 c-43 -18 -41 -84 4 -101 59 -22 102 59 51 95 -25 18 -25
18 -55 6z"/>
<path d="M699 1316 c-36 -17 -38 -69 -4 -92 47 -31 98 10 79 64 -11 32 -44 44
-75 28z"/>
<path d="M2627 1302 c-20 -22 -22 -63 -5 -80 20 -20 65 -14 82 10 21 30 20 44
-4 68 -25 25 -52 26 -73 2z"/>
</g>
</svg>
