<?xml version="1.0" standalone="no"?>
<!DOCTYPE svg PUBLIC "-//W3C//DTD SVG 20010904//EN"
 "http://www.w3.org/TR/2001/REC-SVG-20010904/DTD/svg10.dtd">
<svg version="1.0" xmlns="http://www.w3.org/2000/svg"
 width="373.000000pt" height="187.000000pt" viewBox="0 0 373.000000 187.000000"
 preserveAspectRatio="xMidYMid meet">

<g transform="translate(0.000000,187.000000) scale(0.100000,-0.100000)"
fill="#000000" stroke="none">
<path d="M0 935 l0 -935 1865 0 1865 0 0 430 c0 376 -2 430 -15 430 -9 0 -15
-9 -15 -25 0 -23 -4 -25 -45 -25 -41 0 -45 2 -45 25 0 24 -2 25 -70 25 l-70 0
0 39 c0 33 10 50 72 125 70 83 74 86 115 86 l43 0 0 -90 c0 -73 3 -90 15 -90
13 0 15 59 15 470 l0 470 -1865 0 -1865 0 0 -935z m1817 164 c26 -10 50 -44
55 -79 3 -23 -1 -25 -41 -28 -38 -3 -47 0 -66 24 -18 23 -24 25 -42 16 -23
-13 -33 -58 -24 -106 8 -37 56 -61 71 -36 7 11 5 16 -5 18 -10 2 -15 16 -15
38 l0 34 65 0 c75 0 78 -4 73 -105 l-3 -60 -55 -4 c-127 -9 -159 -6 -185 19
-14 13 -32 37 -40 54 -31 61 -9 176 39 206 42 27 114 31 173 9z m-538 -18 c26
-29 29 -102 6 -121 -14 -12 -14 -15 0 -30 8 -9 15 -34 15 -56 1 -43 -2 -49 76
166 l23 65 56 0 57 0 20 -65 c11 -36 23 -72 28 -80 4 -9 11 -35 15 -58 4 -23
11 -44 16 -48 5 -3 9 -14 9 -25 0 -16 -7 -19 -55 -19 -48 0 -55 2 -55 20 0 16
-7 20 -34 20 -26 0 -36 -5 -41 -20 -6 -18 -15 -20 -111 -20 -76 0 -104 3 -105
13 -5 46 -7 57 -12 71 -4 9 -16 16 -27 16 -17 0 -20 -6 -20 -45 0 -38 -3 -45
-19 -45 -18 0 -19 8 -19 146 l1 146 78 -4 c67 -3 80 -6 98 -27z m1482 -2 c21
-24 25 -79 8 -96 -9 -9 -8 -16 4 -27 27 -27 30 -56 12 -97 -19 -42 -52 -59
-115 -59 -56 0 -93 17 -112 51 -26 45 -23 49 31 49 34 0 51 -4 55 -15 7 -20
45 -19 52 0 8 21 -16 47 -38 42 -15 -4 -18 1 -18 33 0 32 4 39 25 44 28 7 33
24 9 33 -10 4 -23 -2 -33 -15 -14 -19 -20 -21 -53 -11 -43 11 -47 25 -18 62
24 30 47 37 118 32 40 -3 58 -9 73 -26z m276 -6 c41 -50 22 -112 -49 -163
l-41 -30 56 0 57 0 0 -35 0 -35 -129 0 -130 0 11 32 c15 44 33 66 89 108 62
47 66 54 49 80 -9 13 -13 12 -29 -7 -15 -18 -30 -23 -65 -23 -46 0 -46 0 -40
28 10 37 35 70 59 76 11 2 47 3 80 1 51 -3 63 -7 82 -32z m159 0 c-10 -53 -36
-163 -46 -193 -5 -14 -11 -37 -14 -52 -5 -22 -12 -28 -32 -28 -24 0 -26 3 -21
33 3 17 10 50 16 72 5 22 17 69 25 105 21 93 25 100 53 100 24 0 25 -2 19 -37z
m232 2 c36 -42 29 -55 -27 -55 -29 0 -51 5 -53 12 -6 16 -38 2 -38 -16 0 -11
8 -13 34 -9 44 7 89 -19 104 -61 16 -44 15 -59 -5 -95 -41 -70 -183 -69 -216
2 -26 55 -30 102 -13 159 23 82 51 100 141 93 38 -3 55 -10 73 -30z m-1499
-120 c1 -46 -2 -64 -10 -60 -6 4 -9 16 -6 26 3 11 1 19 -4 19 -14 0 -11 30 4
31 8 0 8 2 1 5 -6 3 -9 16 -6 29 8 44 19 17 21 -50z m370 -169 c5 -6 12 -23
16 -38 l7 -27 -111 0 -111 -1 0 38 0 38 95 1 c58 0 98 -4 104 -11z m51 -11 c0
-17 5 -25 18 -25 14 0 14 2 3 9 -8 5 -11 16 -8 25 9 24 86 19 115 -7 22 -21
30 -57 12 -57 -5 0 -10 6 -10 13 0 9 -2 9 -8 1 -4 -7 -36 -12 -74 -13 l-68 -1
0 40 c0 22 5 40 10 40 6 0 10 -11 10 -25z"/>
<path d="M1140 1003 c0 -25 27 -32 48 -11 19 19 15 25 -18 30 -26 4 -30 1 -30
-19z"/>
<path d="M1450 972 c0 -11 -3 -27 -6 -36 -4 -10 -1 -16 10 -16 12 0 14 7 9 33
-7 39 -13 48 -13 19z"/>
<path d="M3312 908 c2 -25 8 -33 23 -33 16 0 20 7 20 30 0 24 -5 31 -23 33
-21 3 -23 0 -20 -30z"/>
<path d="M3595 970 c-3 -11 -11 -20 -16 -20 -5 0 -9 -4 -9 -10 0 -5 9 -10 20
-10 16 0 20 7 20 30 0 35 -6 39 -15 10z"/>
</g>
</svg>
