<?xml version="1.0" standalone="no"?>
<!DOCTYPE svg PUBLIC "-//W3C//DTD SVG 20010904//EN"
 "http://www.w3.org/TR/2001/REC-SVG-20010904/DTD/svg10.dtd">
<svg version="1.0" xmlns="http://www.w3.org/2000/svg"
 width="1500.000000pt" height="562.000000pt" viewBox="0 0 1500.000000 562.000000"
 preserveAspectRatio="xMidYMid meet">

<g transform="translate(0.000000,562.000000) scale(0.100000,-0.100000)"
fill="#000000" stroke="none">
<path d="M3680 5200 c0 -20 -7 -20 -1570 -20 l-1570 0 0 -1610 0 -1610 -55 0
-55 0 0 -880 0 -880 1625 0 1625 0 0 22 0 21 5145 -6 5145 -6 0 865 0 864 330
0 330 0 0 1520 0 1520 -1795 0 -1795 0 0 -215 0 -215 -1840 0 -1840 0 0 325 0
325 -1840 0 c-1833 0 -1840 0 -1840 -20z"/>
</g>
</svg>
